# xmcd
# 
# Track frame offsets:
#     150
#     16050
#     32637
#     61400
#     75425
#     89500
#     114800
#     152800
#     161775
#     168700
#     191325
#     211625
#     231100
#     253850
#     284700
#     297550
#     308525
#     321575
# 
# Disc length: 4536
# 
# Revision: 2
# Processed by: cddbd v1.5.2PL0 Copyright (c) Steve Scherf et al.
# Submitted via: BonkEnc v1.0.8
# 
DISCID=f711b612
DTITLE=8人 - FAVOURITE PIANO WORKS
DYEAR=0
DGENRE=
TTITLE0=アルフレッド・ブレンデル/エリーゼのために
TTITLE1=イングリッド・ヘブラー/トルコ行進曲 K.331
TTITLE2=イングリッド・ヘブラー/幻想曲 ニ短調 K.397
TTITLE3=クラウディオ・アラウ/トロイメライ
TTITLE4=クラウディオ・アラウ/予言の鳥
TTITLE5=クラウディオ・アラウ/即興曲 変ホ長調 作品90の2
TTITLE6=クラウディオ・アラウ/即興曲番 変イ長調 策人142の2
TTITLE7=アルフレッド・ブレンデル/楽興の時 第3番 ヘ短調 作品94
TTITLE8=スティーブン・コワセヴィッチ/ワルツ
TTITLE9=ニキタ・マガロフ/マズルカ ロ短調 作品33の4
TTITLE10=ニキタ・マガロフ/エチュード ホ長調 作品10の3
TTITLE11=ミッシャ・ディヒター/ラ・カンパネラ
TTITLE12=クラウディオ・アラウ/愛の夢 第3番 変イ長調
TTITLE13=クラウディオ・アラウ/月の光
TTITLE14=クラウディオ・アラウ/亜麻色の髪の乙女
TTITLE15=イルゼ・フォン・アルペンハイム/春の歌
TTITLE16=イルゼ・フォン・アルペンハイム/ヴェニスの舟歌
TTITLE17=ラルス・ルース/乙女の祈り
EXTD=
EXTT0=
EXTT1=
EXTT2=
EXTT3=
EXTT4=
EXTT5=
EXTT6=
EXTT7=
EXTT8=
EXTT9=
EXTT10=
EXTT11=
EXTT12=
EXTT13=
EXTT14=
EXTT15=
EXTT16=
EXTT17=
PLAYORDER=
